HIERARCHY
ROOT joint_Root
{
	OFFSET 0.0 0.0 0.0
	CHANNELS 6 Xposition Yposition Zposition Zrotation Xrotation Yrotation 
	JOINT Hips
	{
		OFFSET -17.1583 93.1646 452.98
		CHANNELS 6 Xposition Yposition Zposition Zrotation Xrotation Yrotation 
		JOINT Spine
		{
			OFFSET 15.7357 0.0 0.0
			CHANNELS 6 Xposition Yposition Zposition Zrotation Xrotation Yrotation 
			JOINT Chest
			{
				OFFSET 8.98455 -0.406207 0.0
				CHANNELS 6 Xposition Yposition Zposition Zrotation Xrotation Yrotation 
				JOINT Neck
				{
					OFFSET 16.3773 0.0 0.0
					CHANNELS 6 Xposition Yposition Zposition Zrotation Xrotation Yrotation 
					JOINT Head
					{
						OFFSET 6.45672 0.0 0.0
						CHANNELS 6 Xposition Yposition Zposition Zrotation Xrotation Yrotation 
						End Site
						{
							OFFSET 0.0 0.0 0.0
						}
					}
				}
				JOINT Shoulder_L
				{
					OFFSET 12.9942 -0.242716 4.98039
					CHANNELS 6 Xposition Yposition Zposition Zrotation Xrotation Yrotation 
					JOINT UpperArm_L
					{
						OFFSET 5.34809 0.0 0.0
						CHANNELS 6 Xposition Yposition Zposition Zrotation Xrotation Yrotation 
						JOINT LowerArm_L
						{
							OFFSET 24.3286 1.87007e-05 0.0
							CHANNELS 6 Xposition Yposition Zposition Zrotation Xrotation Yrotation 
							JOINT Hand_L
							{
								OFFSET 22.2916 0.0 0.0
								CHANNELS 6 Xposition Yposition Zposition Zrotation Xrotation Yrotation 
								End Site
								{
									OFFSET 0.0 0.0 0.0
								}
							}
						}
					}
				}
				JOINT Shoulder_R
				{
					OFFSET 12.9945 -0.242716 -4.98039
					CHANNELS 6 Xposition Yposition Zposition Zrotation Xrotation Yrotation 
					JOINT UpperArm_R
					{
						OFFSET -5.34813 0.0 0.0
						CHANNELS 6 Xposition Yposition Zposition Zrotation Xrotation Yrotation 
						JOINT LowerArm_R
						{
							OFFSET -24.3289 0.000322201 0.0
							CHANNELS 6 Xposition Yposition Zposition Zrotation Xrotation Yrotation 
							JOINT Hand_R
							{
								OFFSET -22.2915 -0.000108084 0.0
								CHANNELS 6 Xposition Yposition Zposition Zrotation Xrotation Yrotation 
								End Site
								{
									OFFSET 0.0 0.0 0.0
								}
							}
						}
					}
				}
			}
		}
		JOINT UpperLeg_L
		{
			OFFSET -2.19248 -6.46944 0.0
			CHANNELS 6 Xposition Yposition Zposition Zrotation Xrotation Yrotation 
			JOINT LowerLeg_L
			{
				OFFSET 39.0811 0.0 -1.23785e-05
				CHANNELS 6 Xposition Yposition Zposition Zrotation Xrotation Yrotation 
				JOINT Foot_L
				{
					OFFSET 40.9854 0.0 -1.26872e-05
					CHANNELS 6 Xposition Yposition Zposition Zrotation Xrotation Yrotation 
					JOINT Toes_L
					{
						OFFSET 11.7543 0.0 0.0
						CHANNELS 6 Xposition Yposition Zposition Zrotation Xrotation Yrotation 
						End Site
						{
							OFFSET 0.0 0.0 0.0
						}
					}
				}
			}
		}
		JOINT UpperLeg_R
		{
			OFFSET -2.19251 6.46944 0.0
			CHANNELS 6 Xposition Yposition Zposition Zrotation Xrotation Yrotation 
			JOINT LowerLeg_R
			{
				OFFSET -39.0811 -0.00228153 -0.0401928
				CHANNELS 6 Xposition Yposition Zposition Zrotation Xrotation Yrotation 
				JOINT Foot_R
				{
					OFFSET -40.9854 0.0 0.0
					CHANNELS 6 Xposition Yposition Zposition Zrotation Xrotation Yrotation 
					JOINT Toes_R
					{
						OFFSET -11.7543 0.0 0.0
						CHANNELS 6 Xposition Yposition Zposition Zrotation Xrotation Yrotation 
						End Site
						{
							OFFSET 0.0 0.0 0.0
						}
					}
				}
			}
		}
	}
}
MOTION
Frames:	6
Frame Time:	0.0333333
0.000000 0.000000 0.000000 0.000000 0.000000 -0.000000 -4.176930 91.804800 -0.870904 83.882900 0.523463 5.596810 15.735700 0.000005 -0.000001 55.378800 86.224200 -52.512100 8.984550 -0.406207 -0.000000 -1.433040 -4.519470 5.677480 16.377300 -0.000001 -0.000001 10.022700 0.266661 5.799630 6.456720 -0.000001 -0.000000 0.919583 1.076650 12.222100 12.994200 -0.242716 4.980390 -92.141300 6.304770 -71.198000 5.348090 -0.000007 -0.000001 -75.134600 28.848100 2.114730 24.328600 0.000019 0.000005 12.773600 27.926500 -25.830300 22.291600 -0.000001 0.000005 -3.803940 5.030750 6.658560 12.994500 -0.242716 -4.980390 88.163100 4.875690 -69.327600 -5.348130 -0.000001 -0.000004 -71.931400 5.037480 -14.262200 -24.328900 0.000322 -0.000009 16.467100 -19.336300 -138.243000 -22.291500 -0.000108 -0.000004 53.753200 5.659680 -16.023900 -2.192480 -6.469440 -0.000000 -171.295000 6.103860 -2.788650 39.081100 -0.000007 -0.000012 0.404564 -0.737168 28.759400 40.985400 -0.000006 -0.000013 -0.058642 7.580170 -77.025700 11.754300 -0.000000 0.000003 0.000896 0.150855 -10.458900 -2.192510 6.469440 -0.000001 -169.714000 6.905990 -175.604000 -39.081100 -0.002282 -0.040193 0.132546 -0.447149 16.118500 -40.985400 0.000008 0.000006 5.717750 0.749684 -71.419200 -11.754300 -0.000006 -0.000006 -0.008345 0.258491 -6.074790
0.000000 0.000000 0.000000 0.000000 0.000000 -0.000000 -4.113120 91.817200 -0.860153 83.888900 0.507778 5.569570 15.735700 0.000005 -0.000001 55.273300 86.240700 -52.408200 8.984550 -0.406207 -0.000000 -1.468460 -4.512810 5.672910 16.377300 -0.000001 -0.000001 10.043400 0.305389 5.779110 6.456720 -0.000001 -0.000000 0.987028 1.144820 12.138400 12.994200 -0.242716 4.980390 -92.142700 6.307600 -71.194300 5.348090 -0.000007 -0.000001 -75.185900 28.727100 2.198870 24.328600 0.000019 0.000005 12.726100 27.981500 -25.703300 22.291600 -0.000001 0.000005 -3.702060 5.030450 6.665070 12.994500 -0.242716 -4.980390 88.173500 4.841020 -69.299800 -5.348130 -0.000001 -0.000004 -71.917500 5.078040 -14.239900 -24.328900 0.000322 -0.000009 16.474500 -19.276200 -138.145000 -22.291500 -0.000108 -0.000004 53.908800 5.655400 -15.554400 -2.192480 -6.469440 -0.000000 -171.339000 6.045900 -2.782310 39.081100 -0.000007 -0.000012 0.399485 -0.729755 28.698300 40.985400 -0.000006 -0.000013 -0.011601 7.574220 -76.946300 11.754300 -0.000000 0.000003 0.000975 0.149172 -10.527200 -2.192510 6.469440 -0.000001 -169.754000 6.839910 -175.606000 -39.081100 -0.002282 -0.040193 0.130830 -0.442595 16.070600 -40.985400 0.000008 0.000006 5.638430 0.693764 -71.369400 -11.754300 -0.000006 -0.000006 -0.008245 0.257686 -6.107650
0.000000 0.000000 0.000000 0.000000 0.000000 -0.000000 -4.029770 91.828000 -0.865110 83.925000 0.496509 5.527270 15.735700 0.000005 -0.000001 55.061600 86.252800 -52.210600 8.984550 -0.406207 -0.000000 -1.504660 -4.521490 5.643310 16.377300 -0.000001 -0.000001 10.092600 0.347900 5.731000 6.456720 -0.000001 -0.000000 0.980921 1.235320 12.128700 12.994200 -0.242716 4.980390 -92.142700 6.310000 -71.200600 5.348090 -0.000007 -0.000001 -75.246100 28.539200 2.305740 24.328600 0.000019 0.000005 12.718600 28.097500 -25.604800 22.291600 -0.000001 0.000005 -3.774150 5.030840 6.656450 12.994500 -0.242716 -4.980390 88.187300 4.801580 -69.288900 -5.348130 -0.000001 -0.000004 -71.895900 4.936250 -14.173400 -24.328900 0.000322 -0.000009 16.002900 -18.695100 -138.178000 -22.291500 -0.000108 -0.000004 53.622400 5.657170 -15.744900 -2.192480 -6.469440 -0.000000 -171.431000 5.991470 -2.802070 39.081100 -0.000007 -0.000012 0.400511 -0.732925 28.655600 40.985400 -0.000006 -0.000013 0.046002 7.562630 -76.942600 11.754300 -0.000000 0.000003 0.000907 0.150631 -10.468000 -2.192510 6.469440 -0.000001 -169.856000 6.846410 -175.659000 -39.081100 -0.002282 -0.040193 0.130916 -0.442150 16.096200 -40.985400 0.000008 0.000006 5.611430 0.779773 -71.403200 -11.754300 -0.000006 -0.000006 -0.008539 0.260045 -6.011300
0.000000 0.000000 0.000000 0.000000 0.000000 -0.000000 -3.954400 91.836900 -0.861155 83.927600 0.466853 5.484460 15.735700 0.000005 -0.000001 55.081500 86.279400 -52.238400 8.984550 -0.406207 -0.000000 -1.547880 -4.489420 5.626330 16.377300 -0.000001 -0.000001 10.126800 0.372351 5.677170 6.456720 -0.000001 -0.000000 0.953777 1.291350 12.138500 12.994200 -0.242716 4.980390 -92.137300 6.302110 -71.222800 5.348090 -0.000007 -0.000001 -75.279400 28.491000 2.414630 24.328600 0.000019 0.000005 12.662900 28.100400 -25.501400 22.291600 -0.000001 0.000005 -3.808680 5.027200 6.735400 12.994500 -0.242716 -4.980390 88.201800 4.756230 -69.261900 -5.348130 -0.000001 -0.000004 -71.836400 4.821280 -14.094200 -24.328900 0.000322 -0.000009 15.820200 -18.422000 -138.118000 -22.291500 -0.000108 -0.000004 53.531400 5.654700 -15.482900 -2.192480 -6.469440 -0.000000 -171.477000 5.953810 -2.815670 39.081100 -0.000007 -0.000012 0.398484 -0.730414 28.616000 40.985400 -0.000006 -0.000013 0.107045 7.581200 -76.891200 11.754300 -0.000000 0.000003 0.000979 0.149087 -10.530600 -2.192510 6.469440 -0.000001 -169.901000 6.797530 -175.687000 -39.081100 -0.002282 -0.040193 0.130243 -0.440297 16.079700 -40.985400 0.000008 0.000006 5.552180 0.752187 -71.393700 -11.754300 -0.000006 -0.000006 -0.008449 0.259328 -6.040570
0.000000 0.000000 0.000000 0.000000 0.000000 -0.000000 -3.873220 91.848900 -0.848246 83.955200 0.461682 5.484830 15.735700 0.000005 -0.000001 55.312000 86.290900 -52.480800 8.984550 -0.406207 -0.000000 -1.551270 -4.450800 5.602870 16.377300 -0.000001 -0.000001 10.163500 0.390881 5.663370 6.456720 -0.000001 -0.000000 0.877851 1.316340 12.069700 12.994200 -0.242716 4.980390 -92.136600 6.305280 -71.237600 5.348090 -0.000007 -0.000001 -75.306000 28.367100 2.482970 24.328600 0.000019 0.000005 12.655800 28.245000 -25.383900 22.291600 -0.000001 0.000005 -3.657490 5.032080 6.629610 12.994500 -0.242716 -4.980390 88.219700 4.702850 -69.238400 -5.348130 -0.000001 -0.000004 -71.800800 4.536330 -13.979900 -24.328900 0.000322 -0.000009 15.515900 -18.021500 -138.095000 -22.291500 -0.000108 -0.000004 53.190000 5.655600 -15.576000 -2.192480 -6.469440 -0.000000 -171.569000 5.944350 -2.772310 39.081100 -0.000007 -0.000012 0.399300 -0.733704 28.557100 40.985400 -0.000006 -0.000013 0.156372 7.541960 -76.895100 11.754300 -0.000000 0.000003 0.000886 0.151063 -10.450400 -2.192510 6.469440 -0.000001 -169.983000 6.724110 -175.676000 -39.081100 -0.002282 -0.040193 0.129749 -0.438403 16.086000 -40.985400 0.000008 0.000006 5.423770 0.743167 -71.401800 -11.754300 -0.000006 -0.000006 -0.008394 0.258883 -6.058760
0.000000 0.000000 0.000000 0.000000 0.000000 -0.000000 -3.795220 91.856700 -0.848371 83.961000 0.462813 5.428380 15.735700 0.000005 -0.000001 55.347100 86.309100 -52.524900 8.984550 -0.406207 -0.000000 -1.579620 -4.426360 5.584220 16.377300 -0.000001 -0.000001 10.184400 0.406999 5.643780 6.456720 -0.000001 -0.000000 0.820208 1.341380 12.033300 12.994200 -0.242716 4.980390 -92.146500 6.327810 -71.218900 5.348090 -0.000007 -0.000001 -75.268100 28.344900 2.515380 24.328600 0.000019 0.000005 12.633400 28.231400 -25.353000 22.291600 -0.000001 0.000005 -3.624940 5.023810 6.808810 12.994500 -0.242716 -4.980390 88.244300 4.633310 -69.220000 -5.348130 -0.000001 -0.000004 -71.807400 4.348760 -13.897600 -24.328900 0.000322 -0.000009 15.584900 -17.991900 -137.917000 -22.291500 -0.000108 -0.000004 53.084300 5.652240 -15.233100 -2.192480 -6.469440 -0.000000 -171.625000 5.946010 -2.819650 39.081100 -0.000007 -0.000012 0.398670 -0.733296 28.532500 40.985400 -0.000006 -0.000013 0.208097 7.531160 -76.852300 11.754300 -0.000000 0.000003 0.000902 0.150734 -10.463800 -2.192510 6.469440 -0.000001 -170.048000 6.746860 -175.731000 -39.081100 -0.002282 -0.040193 0.129555 -0.437765 16.084800 -40.985400 0.000008 0.000006 5.397030 0.791628 -71.411300 -11.754300 -0.000006 -0.000006 -0.008607 0.260584 -5.989250
